<svg xmlns="http://www.w3.org/2000/svg" width="600" height="265" viewBox="0 0 600 265" role="img" aria-labelledby="title"><title id="title">Neddle, a six-attempt word game with duplicate-letter-aware feedback.</title><rect width="600" height="265" rx="12" fill="#f4f1e9"/><text x="32" y="34" font-family="monospace" font-size="12" fill="#686b61" >NEDDLE / SIX TRIES. FIVE LETTERS.</text><rect x="113" y="59" width="65" height="68" rx="4" fill="#5a6752"/><text x="145" y="105" font-family="monospace" font-size="30" fill="#fffdf7" text-anchor="middle">B</text><rect x="189" y="59" width="65" height="68" rx="4" fill="#e0dfd5"/><text x="221" y="105" font-family="monospace" font-size="30" fill="#fffdf7" text-anchor="middle">U</text><rect x="265" y="59" width="65" height="68" rx="4" fill="#b49a5c"/><text x="297" y="105" font-family="monospace" font-size="30" fill="#fffdf7" text-anchor="middle">I</text><rect x="341" y="59" width="65" height="68" rx="4" fill="#5a6752"/><text x="373" y="105" font-family="monospace" font-size="30" fill="#fffdf7" text-anchor="middle">L</text><rect x="417" y="59" width="65" height="68" rx="4" fill="#e0dfd5"/><text x="449" y="105" font-family="monospace" font-size="30" fill="#fffdf7" text-anchor="middle">D</text><rect x="113" y="140" width="65" height="68" rx="4" fill="#e0dfd5"/><text x="145" y="186" font-family="monospace" font-size="30" fill="#242620" text-anchor="middle">L</text><rect x="189" y="140" width="65" height="68" rx="4" fill="#e0dfd5"/><text x="221" y="186" font-family="monospace" font-size="30" fill="#242620" text-anchor="middle">E</text><rect x="265" y="140" width="65" height="68" rx="4" fill="#e0dfd5"/><text x="297" y="186" font-family="monospace" font-size="30" fill="#242620" text-anchor="middle">A</text><rect x="341" y="140" width="65" height="68" rx="4" fill="#e0dfd5"/><text x="373" y="186" font-family="monospace" font-size="30" fill="#242620" text-anchor="middle">R</text><rect x="417" y="140" width="65" height="68" rx="4" fill="#e0dfd5"/><text x="449" y="186" font-family="monospace" font-size="30" fill="#242620" text-anchor="middle">N</text><text x="300" y="244" font-family="monospace" font-size="12" fill="#686b61" text-anchor="middle">a little word puzzle; a lot of careful logic</text></svg>